
<global>
ampeg_attack=0.01
ampeg_release=0.35
</global>

<group>
amp_veltrack=0
group_label=PP
lpc_hicc1=42
lpc_locc1=0

<region>
hikey=a#2
hivel=127
lokey=a2
loop_end=284689
loop_mode=loop_continuous
loop_start=83009
loop_xfade=24144
lovel=1
lpc=RLaTQrxZNsODjyNDdiK2wnsEdEIHk+jBHXiwQAALDsHmGWlBkeuhwbH3ukEecmXBEg1pQQHUCcDUsq/BaDV3QcwolsAq/QZA/iShQM1PWsCNyoU/YzxNwLjNhr74x+g/
lpc_rms=-28.64
offset=5369
pitch_keycenter=a#2
sample=Baritone_nonvib_PP_A#2.opus
tune=-1
</region>

<region>
hikey=a#3
hivel=127
lokey=a3
loop_end=271026
loop_mode=loop_continuous
loop_start=79026
loop_xfade=22985
lovel=1
lpc=CLBXQrkx/sLcD9lC2st8wgUzREKkIsDBOJyEQJBQgMGoTdhBdFR6wfOlKEBKPa4/dCvAPwajOkFNtqvBceFdvfEFHEHp0JbApZEHQbMh478FlXzA/opzwF97dEB9kHg+
lpc_rms=-32.04
offset=5662
pitch_keycenter=a#3
sample=Baritone_nonvib_PP_A#3.opus
tune=-18
</region>

<region>
hikey=B4
hivel=127
lokey=a4
loop_end=303685
loop_mode=loop_continuous
loop_start=88548
loop_xfade=25755
lovel=1
lpc=g/wgQiE/uMLZFKlCNolTwlscEkJsJnzBVAVSQSE+58FrCudBuZuOwSfw3UCypXu/bValvzOVxUAfTN3A4Iz0P8daAsCrb7I+QwvZQJ4D8MBCiStB0XQpwS71Mb/DF6xA
lpc_rms=-28.84
offset=45
pitch_keycenter=A#4
sample=Baritone_nonvib_PP_A#4.opus
tune=+46
</region>

<region>
hivel=127
key=c2
loop_end=283518
loop_mode=loop_continuous
loop_start=82668
loop_xfade=24045
lovel=1
lpc=/1O0QjsVX8MEf0dDKGHFwltgckLaWifCrpleQfDRccFgkslBCqPRwTcloUFFIJjA+k0BQeayLkGyIQHC7buQQVIlC8GtSI5ATmI+QdTbesHRdsjA/puQQda1d8F0vOpA
lpc_rms=-28.16
sample=Baritone_nonvib_PP_C2.opus
tune=+3
</region>

<region>
hikey=c3
hivel=127
lokey=b2
loop_end=283628
loop_mode=loop_continuous
loop_start=82700
loop_xfade=24054
lovel=1
lpc=pyOiQpUGSsMaQThDFbTPwiwIhEIccOrB4bhjQMC9GsG6tqtBGZaawa1vR0HrVhvBECsxQah9E0H75rvBFGL8QJHICsBAolO/4LGPQLi5aT/4lyi+Py2YwJHlh0Dw+ZC/
lpc_rms=-28.82
offset=4289
pitch_keycenter=c3
sample=Baritone_nonvib_PP_C3.opus
tune=-5
</region>

<region>
hikey=c4
hivel=127
lokey=b3
loop_end=264055
loop_mode=loop_continuous
loop_start=76993
loop_xfade=22394
lovel=1
lpc=CWygQuqjScO6uzlDwcDqwi0svEJm3TzCVsdsQeodCsJQBVdCYC0mwqaVCkFCZblAFfKMQQ2VvsD6gtvBTHMzQMFh4kDiIIxBySQuwb2ur0AGsBvBm5vovcJwD0BL1o0/
lpc_rms=-27.54
offset=3675
pitch_keycenter=c4
sample=Baritone_nonvib_PP_C4.opus
tune=-17
</region>

<region>
hikey=d2
hivel=127
lokey=c#2
loop_end=266617
loop_mode=loop_continuous
loop_start=77740
loop_xfade=22611
lovel=1
lpc=b6rpQufheMNvEDFD6m24wq1wgUKgoUzByd9iwYinrMCoZNlBCq2BwWhDj76I80hBpOuuQMAbhkCDnLDBiwkCwDLAdUATxazA1fukQScme8GSKmPAqGIUQY7nzMA9gG1A
lpc_rms=-29.19
offset=4601
pitch_keycenter=d2
sample=Baritone_nonvib_PP_D2.opus
tune=-11
</region>

<region>
hikey=d3
hivel=127
lokey=c#3
loop_end=275527
loop_mode=loop_continuous
loop_start=80338
loop_xfade=23367
lovel=1
lpc=MkrIQgfOfsNvjl1DPu64wsP0bUItPyzCp5aCQRIHIML9jDlCIQufwLcFScGyoD5BLJSNwQ8spkESrSTBOSA1v6ugjMAeiG/A+mlGQe2zh0DXnxfARo/nwVNCBkKSYSXB
lpc_rms=-26.53
offset=5006
pitch_keycenter=d3
sample=Baritone_nonvib_PP_D3.opus
tune=-5
</region>

<region>
hikey=d4
hivel=127
lokey=c#4
loop_end=267331
loop_mode=loop_continuous
loop_start=77948
loop_xfade=22672
lovel=1
lpc=WrrwQkRMk8N5rXtDNTgLw5mv3UJMaUTClkqlQe8aNcLL7SNCETQEwhOPCkHQ9xRB9va5QcqeG8GqSSbCUznWQYmTccFKwPBBo8vLwNJJ/T/N7KTBn1GjQdbCxsGwXXpB
lpc_rms=-22.93
offset=2113
pitch_keycenter=d4
sample=Baritone_nonvib_PP_D4.opus
tune=-24
</region>

<region>
hikey=e2
hivel=127
lokey=d#2
loop_end=286579
loop_mode=loop_continuous
loop_start=83560
loop_xfade=24304
lovel=1
lpc=dHm1QmfOTMN73B9Dg3aYwufVY0KpQg/Cu/NBQR2CiMEX3blBx+aXwcfLj0DZBEBBmudaQGEZAkBH7qDBajw0QHrNI0GXmNDAgxc8QQ3tYME047lAVIQlwEDexr/hSTlA
lpc_rms=-29.39
pitch_keycenter=e2
sample=Baritone_nonvib_PP_E2.opus
tune=-6
</region>

<region>
hikey=e3
hivel=127
lokey=d#3
loop_end=254489
loop_mode=loop_continuous
loop_start=74204
loop_xfade=21583
lovel=1
lpc=88WBQjFVGMPMMN9CO8cYwtYAE0KF36HBFRq0wO2recH0MQBCnJlowQE8DUAJS+m/K450QJ0khEDJsQzBc6nvPc1noMC6o+5Ad34iv7yxs0DeSIjATt8KwcWeGUGXtg7A
lpc_rms=-33.40
offset=123
pitch_keycenter=e3
sample=Baritone_nonvib_PP_E3.opus
tune=-2
</region>

<region>
hikey=e4
hivel=127
lokey=d#4
loop_end=266980
loop_mode=loop_continuous
loop_start=77846
loop_xfade=22642
lovel=1
lpc=avP9QQoSn8IAzJFC79Mswsu9D0KpGLfB+jtAQVbzmsGBaL1BG9OBwRsl1kD2KMLAVLwzQR4TicDluavAldBVQBfmzcDlkjhBRkj6wC2GwkDWR6fAa0qQQBCxjsCJgtg/
lpc_rms=-34.34
pitch_keycenter=e4
sample=Baritone_nonvib_PP_E4.opus
tune=-31
</region>

<region>
hikey=f#2
hivel=127
lokey=f2
loop_end=286539
loop_mode=loop_continuous
loop_start=83549
loop_xfade=24301
lovel=1
lpc=eDusQgBERcOQHB9DJr6rwrQFcEJCyoDBeqyAwTuyhMCC1tRBM+IxwWQAicD/h/pAOM8MwOwESkB3GeDAsdnJwK6xMUG47SHBZAMkQU1eN8AGbxNAwskmPXgdoMC8BQBA
lpc_rms=-30.39
pitch_keycenter=f#2
sample=Baritone_nonvib_PP_F#2.opus
tune=-10
</region>

<region>
hikey=f#3
hivel=127
lokey=f3
loop_end=290498
loop_mode=loop_continuous
loop_start=84703
loop_xfade=24637
lovel=1
lpc=djyKQnykJsNG8RZDZWC4wryfi0LzuD3C07jwQT54A8LTbQhC5MkFwhpdFUJWAvrBqSa6QZA4oMAnMGDBGBzBQKXcJkE/6p7BqxGiQVD/a8GeCZxBtMS/wctObUH4GXrA
lpc_rms=-26.91
offset=5068
pitch_keycenter=f#3
sample=Baritone_nonvib_PP_F#3.opus
tune=-13
</region>

<region>
hikey=f#4
hivel=127
lokey=f4
loop_end=245790
loop_mode=loop_continuous
loop_start=71667
loop_xfade=20845
lovel=1
lpc=67IcQm86t8LVX5lCpTMjwlK/GUJKoQ/C5pq4QakMKMHnz6lAhZsSwVMn0kBWog0/4IkOwIVqKEFckHfBfZeKQB1Iwz9XHtu/J0IzQD5ZfcBvRihBLxnZwKNbssBQK7FA
lpc_rms=-32.20
offset=287
pitch_keycenter=f#4
sample=Baritone_nonvib_PP_F#4.opus
tune=-33
</region>

<region>
hikey=g#2
hivel=127
lokey=g2
loop_end=271712
loop_mode=loop_continuous
loop_start=79226
loop_xfade=23043
lovel=1
lpc=fsimQqrOQ8PUcyJDpHSxwiq9f0IUSLzBtXc4wDYsWcEMlZtBznXtwBQAF0DdTR1AkqkbQROU7L6IhZHBcTUBvUUouUDAhn49E+iNQE1UQz+7/C3AB/qjwFBeYj/fb0NA
lpc_rms=-30.75
offset=2250
pitch_keycenter=g#2
sample=Baritone_nonvib_PP_G#2.opus
tune=-6
</region>

<region>
hikey=g#3
hivel=127
lokey=g3
loop_end=277272
loop_mode=loop_continuous
loop_start=80847
loop_xfade=23515
lovel=1
lpc=k1wBQqfAlMJ6kXNCjXPxwVV4pEGAQDHBHKO9QJ0JbME9XqVB035WwezSyT836CtAmcskQKZCQEADWj/BlX/NQLIXXD8G9g3Att8DP9QuDL4btSpAqPldPsyOtcCR/mZA
lpc_rms=-37.60
offset=417
pitch_keycenter=g#3
sample=Baritone_nonvib_PP_G#3.opus
tune=-18
</region>

<region>
hikey=g#4
hivel=127
lokey=g4
loop_end=266191
loop_mode=loop_continuous
loop_start=77616
loop_xfade=22575
lovel=1
lpc=X4qqQsfQZ8PrNXZDpp0aw9OHs0K84TjC80PMQdE3wMG4TmZBcAMJwRoyQUG2wYHBueSiQYQxV8FayFZAIBB1wNPAG0E1XwPCm1lPQn3DF8LQ12tA544uQuwDZsKfjrlB
lpc_rms=-23.83
offset=214
pitch_keycenter=g#4
sample=Baritone_nonvib_PP_G#4.opus
tune=-25
</region>
</group>

<group>
amp_veltrack=0
group_label=MF
lpc_hicc1=84
lpc_locc1=43

<region>
hikey=a#2
hivel=127
lokey=a2
loop_end=278916
loop_mode=loop_continuous
loop_start=81326
loop_xfade=23654
lovel=1
lpc=ZFGQQfgdN8KvvzdCy9jOwfVsX0G86ATBHEjCQMiRfcFiQ6VBcqcXwa+HLsDYUOBA+u7NwL5so0DELqTAfXfxQM3A08ALfghAPV5EvyezJUDTIk7ARvM0QKjIPMBL3ME/
lpc_rms=-22.08
offset=4087
pitch_keycenter=a#2
sample=Baritone_nonvib_MF_A#2.opus
tune=-3
</region>

<region>
hikey=a#3
hivel=127
lokey=a3
loop_end=274264
loop_mode=loop_continuous
loop_start=79970
loop_xfade=23260
lovel=1
lpc=NzGSQR8eQcKb0DpCFFeRwYg3gkCoioDAQ4gzQBgb0MDK6odB8SzBwVaHg0Fv1YjAqlytQOt3B8HTbDtA13XaPo5UTb0oX8G+d8HjP82Z3L8Q+XU/Qx8HwB+GI0BJq06/
lpc_rms=-25.13
offset=775
pitch_keycenter=a#3
sample=Baritone_nonvib_MF_A#3.opus
tune=-12
</region>

<region>
hikey=B4
hivel=127
lokey=a4
loop_end=314574
loop_mode=loop_continuous
loop_start=91723
loop_xfade=26679
lovel=1
lpc=63OkQVM5OMK4UylC9HnbwbuwrkHUOhnBgGCtv3Uoz8DNQ5JByvyUweLXhEFkN4bBb+EGQUZpYL/sAdM/1IFyv2ljjD+X6PPAlewzQdvxwcAgFNU/WkvcPzwBmMBdmWdA
lpc_rms=-20.98
offset=6500
pitch_keycenter=A#4
sample=Baritone_nonvib_MF_A#4.opus
tune=+34
</region>

<region>
hivel=127
key=c2
loop_end=281338
loop_mode=loop_continuous
loop_start=82032
loop_xfade=23860
lovel=1
lpc=d7KhQc5ZU8JWPHdCZF08woUG1kEnlwfBtgu6v51jocD2CV9BID54wbn2UkHSGzTBaJU0QRCk/cDmYTlAMntCQJ5XqMBRc9U/oyGYQOuEBsEllptARLQxQOUtw8CNSxxA
lpc_rms=-18.14
offset=4646
sample=Baritone_nonvib_MF_C2.opus
tune=-7
</region>

<region>
hikey=c3
hivel=127
lokey=b2
loop_end=277260
loop_mode=loop_continuous
loop_start=80843
loop_xfade=23514
lovel=1
lpc=y6+OQcfrM8JF3zZCwGrSwXvzRkFCvnzABOYFwFex1cBCVJVBVAtdwbzjN0A9Sb2/F2Jyvp1E5EDjnLDA89a8P4wxVcDD2olAf22IwKAi90Ds+x3BaQPdQANWOMCnGho/
lpc_rms=-22.44
offset=5451
pitch_keycenter=c3
sample=Baritone_nonvib_MF_C3.opus
tune=+2
</region>

<region>
hikey=c4
hivel=127
lokey=b3
loop_end=269082
loop_mode=loop_continuous
loop_start=78459
loop_xfade=22820
lovel=1
lpc=NJoDQs9kssIkb71CbpdqwhSU/UEqLMTAlCcXweoiz8AS8qJB6Uc9wR2dXb87ftlAduMVv+l/o8DARKg/Jhc/QAJp+8Aw0khB5LYowRDPBkF0W+7ACci3PiG9j0C1ngDA
lpc_rms=-19.88
offset=2260
pitch_keycenter=c4
sample=Baritone_nonvib_MF_C4.opus
tune=-18
</region>

<region>
hikey=d2
hivel=127
lokey=c#2
loop_end=272001
loop_mode=loop_continuous
loop_start=79310
loop_xfade=23068
lovel=1
lpc=6wDXQRQXi8JUvpdC3SF0wtGhdEJAUmrC3N4sQoSwLsLBRElC5f0UwloLgEEBNMvAGIk/QDy730DxOF7BCGhUQZmAXcHOJF1BjmIBwUyfl0Am+pLACS3ZP5cOpT9vGZG/
lpc_rms=-19.35
offset=3858
pitch_keycenter=d2
sample=Baritone_nonvib_MF_D2.opus
tune=-3
</region>

<region>
hikey=d3
hivel=127
lokey=c#3
loop_end=292592
loop_mode=loop_continuous
loop_start=85314
loop_xfade=24814
lovel=1
lpc=KZKeQSh6R8Kwl0ZCUTXWwSlSM0GYCIzAF0fGQB6rqsGt0NBBVGoVwWmGxsAO4AZBw8LAwJBtNUCmv68/WWVWQPBMH8E++Z1AJmOkvinpJUAhTUnA6A89QMOsq8D/6mRA
lpc_rms=-21.20
offset=5298
pitch_keycenter=d3
sample=Baritone_nonvib_MF_D3.opus
</region>

<region>
hikey=d4
hivel=127
lokey=c#4
loop_end=306647
loop_mode=loop_continuous
loop_start=89412
loop_xfade=26006
lovel=1
lpc=iPEIQuAXrsL61qJCmAcQwmreB0F9qbpAbTwYwV2nMsAi/TVBtPmEwcdhnEEROVLBqBErQcZhL8BbMSLBhon0QOqPhcCAEutAS2GAwN5uMkAT1ifBbKwqQRtvT8AjRMM+
lpc_rms=-18.24
offset=5398
pitch_keycenter=d4
sample=Baritone_nonvib_MF_D4.opus
tune=-20
</region>

<region>
hikey=e2
hivel=127
lokey=d#2
loop_end=274131
loop_mode=loop_continuous
loop_start=79931
loop_xfade=23249
lovel=1
lpc=Ak6cQbp2S8KtE2pCxz87wiz8F0Kwof7BemHFQSg5rMGqEIpBpNcFwVmLKMC5OCtBr4dEweAkWEEd63vB6W9RQSdTx8Cy57k/gE8mvjcxjT+QzyfAh76RQBDMgsA4CbU/
lpc_rms=-20.98
offset=536
pitch_keycenter=e2
sample=Baritone_nonvib_MF_E2.opus
tune=-7
</region>

<region>
hikey=e3
hivel=127
lokey=d#3
loop_end=278815
loop_mode=loop_continuous
loop_start=81297
loop_xfade=23646
lovel=1
lpc=v/tEQS9a+cGniwFCi1GewQH5M0GCKQXBJwgYQVt6hsEDk6VBm1hZwUs8eT8KYOVAhP7FwApVB0BqwGi/uIQHQI+RQ8BoKntA9cq2wGeGwkAXVI3ABzIxQF2S/7/JRG0/
lpc_rms=-26.01
offset=96
pitch_keycenter=e3
sample=Baritone_nonvib_MF_E3.opus
tune=-4
</region>

<region>
hikey=e4
hivel=127
lokey=d#4
loop_end=267018
loop_mode=loop_continuous
loop_start=77857
loop_xfade=22645
lovel=1
lpc=6nhcQdmvDcK5WgxCBnCTwTbCMEFBwfHAI36zQGizd8FX08JBK1GLwWfwikA7fqs/cM6Kv8qZM0DE2RvA6VmFv6havL8rpLBAPs8IwBKkyL7eVnDA+gTZQNpOjcBcK6c/
lpc_rms=-26.28
offset=521
pitch_keycenter=e4
sample=Baritone_nonvib_MF_E4.opus
tune=-33
</region>

<region>
hikey=f#2
hivel=127
lokey=f2
loop_end=292252
loop_mode=loop_continuous
loop_start=85215
loop_xfade=24785
lovel=1
lpc=5tW9Qe0OgcK6DoxCCWoqwkMv30FO5+XBgYXHQcYRu8EIJsNBVdpewfeRfsBPMjlBzlXswLGWq0DQtOjAOhnnQDN1dsDuH10/zdx2wHHPD0ESEf/ACY2MQHxCQcAFQbI/
lpc_rms=-23.21
offset=9570
pitch_keycenter=f#2
sample=Baritone_nonvib_MF_F#2.opus
tune=-6
</region>

<region>
hikey=f#3
hivel=127
lokey=f3
loop_end=268289
loop_mode=loop_continuous
loop_start=78227
loop_xfade=22753
lovel=1
lpc=tLLjQWEHm8JiVatCqgNIwibtc0H37Z5AteBDwaFI+78hGqVBiKKywcrrG0HtJJFA9ZbnwGTTS0D6T0TA+FpmQE3xyz8eBb3AKw9GQCVmqT9tgxvAIw/zPxB6J8C9ZPY/
lpc_rms=-21.00
offset=5342
pitch_keycenter=f#3
sample=Baritone_nonvib_MF_F#3.opus
tune=-10
</region>

<region>
hikey=f#4
hivel=127
lokey=f4
loop_end=274814
loop_mode=loop_continuous
loop_start=80130
loop_xfade=23307
lovel=1
lpc=6+V9QdVdHsJa1g9CZJZvwTn8AkHrdAPB7b3TQDMbNcEd/6lBqrvjwVSywUE+U07Bsj+eQAFN7T+wKZjAhrX6vxK1MkHB4FXBfI+jQK0EhkC+trPA+BK+QAq128A9kF9A
lpc_rms=-25.55
offset=531
pitch_keycenter=f#4
sample=Baritone_nonvib_MF_F#4.opus
tune=-32
</region>

<region>
hikey=g#2
hivel=127
lokey=g2
loop_end=294528
loop_mode=loop_continuous
loop_start=85878
loop_xfade=24979
lovel=1
lpc=aLyaQdQASsLs1V1CNi8cwsSc2UEYqa3BQxGqQR6H5cGD4uNBkdqEweRxW0CUtLlApsPcwNMRm0Dp6+zAAtA4QSunIMG8YONAO6/TwLru/0DLzSXBY30bQan2qsCpwJc/
lpc_rms=-22.81
offset=115
pitch_keycenter=g#2
sample=Baritone_nonvib_MF_G#2.opus
tune=-4
</region>

<region>
hikey=g#3
hivel=127
lokey=g3
loop_end=269633
loop_mode=loop_continuous
loop_start=78619
loop_xfade=22867
lovel=1
lpc=TE9nQSRsG8Kvqy9C8vDowaJNZ0ED/YXABZlkPoXCvMBcNFhBv3BZwUisgkBZbKFA7HiGwBGVxj/UeL6/s1rHvsjR8D+zA0K/WTe/Ph9Rlr7JaeG9aoDqvvV24T6QYnE+
lpc_rms=-27.73
offset=4338
pitch_keycenter=g#3
sample=Baritone_nonvib_MF_G#3.opus
tune=-20
</region>

<region>
hikey=g#4
hivel=127
lokey=g4
loop_end=255262
loop_mode=loop_continuous
loop_start=74429
loop_xfade=21648
lovel=1
lpc=bS8HQuPJtsKpmsFCgSZFwklcWkE9HVrAa+/SQD2uhsGdL5pB4vKWwWUz4kEJBvTBiyAjQYbNKUFOEeDA/coNwT4IoUEYt9XB0NXOQc8EncEvhgVB1R86QfS+psETviBB
lpc_rms=-17.92
offset=1248
pitch_keycenter=g#4
sample=Baritone_nonvib_MF_G#4.opus
tune=-30
</region>
</group>

<group>
amp_veltrack=0
group_label=FF
lpc_hicc1=127
lpc_locc1=85

<region>
hikey=a#2
hivel=127
lokey=a2
loop_end=299008
loop_mode=loop_continuous
loop_start=87185
loop_xfade=25358
lovel=1
lpc=me45QYdC5sEHrvhBfq62wZgXg0G9/DHBVXATQVj8fcFTIJ1BblJWwZu2mkBdPsC+jESEv97FBz9iNsE/yts7v6lX678Vir4/xUxzPh4TIL7xS1s/BIAGwBLmkD8VKue8
lpc_rms=-20.10
offset=8187
pitch_keycenter=a#2
sample=Baritone_nonvib_FF_A#2.opus
tune=-3
</region>

<region>
hikey=a#3
hivel=127
lokey=a3
loop_end=275120
loop_mode=loop_continuous
loop_start=80219
loop_xfade=23333
lovel=1
lpc=EBYNQdxDuMEA7+FBbki5wSZBbkHUg8zATJ6PP3sBfL8CKPM/F1oGwN45yb320BlAN9NSv0/4yb9XZ5Y/5C+Zvift1D6Iwdu9cSJdvw/oOz/3v10/7MSUv47vlb6hQCs/
lpc_rms=-19.18
offset=3456
pitch_keycenter=a#3
sample=Baritone_nonvib_FF_A#3.opus
tune=-5
</region>

<region>
hikey=B4
hivel=127
lokey=a4
loop_end=307511
loop_mode=loop_continuous
loop_start=89664
loop_xfade=26080
lovel=1
lpc=ik49QZ0n0sEjo+1BOry6wWuQkEEg5YXBIt+OQb7KnsEIsIBBL1HxwCrBPD/5DOg+e0DEP2pSp8DafNxACPRzwE66lj6g0vq/wjy7QGqC0sAj7NFAYB17wO6RwT8NMIo+
lpc_rms=-13.82
offset=7120
pitch_keycenter=A#4
sample=Baritone_nonvib_FF_A#4.opus
tune=+12
</region>

<region>
hivel=127
key=c2
loop_end=261251
loop_mode=loop_continuous
loop_start=76175
loop_xfade=22156
lovel=1
lpc=jhOFQXf3LsKqfVhCSnhCwiNcF0LgTLvBCOUXQUbo7sDU/TxBFe8fwSDcM0CDYog/jUs3wEfsxEBlIafA9Qg5QJ92I8DIdR1Aez8nv3Ndvb6ScaO/nyRzQB+/YcA/k08/
lpc_rms=-15.02
offset=4804
sample=Baritone_nonvib_FF_C2.opus
tune=+2
</region>

<region>
hikey=c3
hivel=127
lokey=b2
loop_end=284939
loop_mode=loop_continuous
loop_start=83082
loop_xfade=24165
lovel=1
lpc=0rI6QbCW9MGBjhVCSHX/wQrJvEE65G3BCc8PQULHNcHG/lZBKiLvwLfgw78H6tBAQyUSwZfUIEFOz+fApbjEQMWP4cBS4qtAVhUkwBVr+T8z0um/H0PrP4l56L8FaDA/
lpc_rms=-20.94
offset=3355
pitch_keycenter=c3
sample=Baritone_nonvib_FF_C3.opus
tune=-2
</region>

<region>
hikey=c4
hivel=127
lokey=b3
loop_end=273543
loop_mode=loop_continuous
loop_start=79760
loop_xfade=23199
lovel=1
lpc=OJpLQSv6DsLvIjpCt8EewjBWyEHfXSfBqOKHQOLHL8F55o1BO8xkwe5vuUAXwfA+gO6/v8QIpr4MrYI/kSYKQFIFtMDoZ6hA32g/wC6M3D/o4ly/UlAjP3HMrb9IRVk/
lpc_rms=-16.96
offset=3458
pitch_keycenter=c4
sample=Baritone_nonvib_FF_C4.opus
tune=-12
</region>

<region>
hikey=d2
hivel=127
lokey=c#2
loop_end=259372
loop_mode=loop_continuous
loop_start=75628
loop_xfade=21997
lovel=1
lpc=DoCTQTueQ8Ib+WlCfTZDwhHoEEIqyKnBD9zMQKdM5MBwZ41BdpuewY0/WUGYChHBSkyzQNQ9dT9t/YvAS5+NQB0ur8A2JpVAZk3zPgBtQsDm4Uc/41acP4wLgb/xBzU+
lpc_rms=-17.40
offset=4357
pitch_keycenter=d2
sample=Baritone_nonvib_FF_D2.opus
tune=-7
</region>

<region>
hikey=d3
hivel=127
lokey=c#3
loop_end=270289
loop_mode=loop_continuous
loop_start=78811
loop_xfade=22923
lovel=1
lpc=tgY5Qemi7cEHrRBCm9sCwkmn20GJfp/BT+xVQZFVUsH4PS1BRt5FwEiON8Dj+oVASnSQwLl2k0Awn1PAAT1dQJLpOsAIqj+/U60RQNnCfb5OPgrAeW+BQF80ksDerg5A
lpc_rms=-19.04
offset=5396
pitch_keycenter=d3
sample=Baritone_nonvib_FF_D3.opus
tune=-3
</region>

<region>
hikey=d4
hivel=127
lokey=c#4
loop_end=279527
loop_mode=loop_continuous
loop_start=81504
loop_xfade=23706
lovel=1
lpc=XjlYQTF/CcKktyRCKv0KwtD6u0Gf3FHBtOQQQU0ROsFxlyVB0yyowGkOGkANeBfAMMhjQE/LX7/czm3AKmDSQFdNvsB70gRA61p6P19trL5xjlbAfQCxQBGIkMDeCvQ/
lpc_rms=-13.79
offset=4405
pitch_keycenter=d4
sample=Baritone_nonvib_FF_D4.opus
tune=-11
</region>

<region>
hikey=e2
hivel=127
lokey=d#2
loop_end=261535
loop_mode=loop_continuous
loop_start=76258
loop_xfade=22180
lovel=1
lpc=JuBAQZfG+8H9nhhC2FX/wec6s0Fx90nBDhvbQJpXPMFGFZ9B0Y+dwTfsR0HEcPvAT57GQJvCYcD8XgZA3DGIv4VqAMC8mJpASzakwMPKokBJVbDAIge8QO0XesB0T3g/
lpc_rms=-19.33
offset=5144
pitch_keycenter=e2
sample=Baritone_nonvib_FF_E2.opus
tune=+1
</region>

<region>
hikey=e3
hivel=127
lokey=d#3
loop_end=280404
loop_mode=loop_continuous
loop_start=81760
loop_xfade=23781
lovel=1
lpc=p/DlQIpGjsGK759BtBxgwTkG7UA+yGXALA+EQPPUBcGPGRRB1GmdwFxWEz/bdzM+Pqt/P1am3r+MvUc/eqUcQBF2hcAdsEFAhcUUwMeGNEB6oCbAYbsFQFqF27+JGyI/
lpc_rms=-21.91
offset=641
pitch_keycenter=e3
sample=Baritone_nonvib_FF_E3.opus
tune=-13
</region>

<region>
hikey=e4
hivel=127
lokey=d#4
loop_end=267630
loop_mode=loop_continuous
loop_start=78035
loop_xfade=22697
lovel=1
lpc=wSisQLNIRsEplF5B0ukxwfX/B0FxqdHA5jihQPvvjMCgSChADknMvfp8q79Pu6Q/WrkOv/QOqT2OFxW+wIaHP+qMj78iEWg+o21WP8AX5L9HOaQ/W0MbP6FCqr+FURA/
lpc_rms=-19.76
offset=405
pitch_keycenter=e4
sample=Baritone_nonvib_FF_E4.opus
tune=-20
</region>

<region>
hikey=f#2
hivel=127
lokey=f2
loop_end=282335
loop_mode=loop_continuous
loop_start=82323
loop_xfade=23944
lovel=1
lpc=W/lQQeHZCsKC1ypCpKEOwtQnwUEhR0nBOsKPQIC7/MAxRoNBLUmGwXnyG0HrOIDAV2ovP6oYBUBCaBzAy+cfQCVFfMDFiXtAbG0qwL1XFEA7O/m/oYz4PyQ9+L8btFE/
lpc_rms=-20.28
offset=734
pitch_keycenter=f#2
sample=Baritone_nonvib_FF_F#2.opus
tune=-2
</region>

<region>
hikey=f#3
hivel=127
lokey=f3
loop_end=287063
loop_mode=loop_continuous
loop_start=83702
loop_xfade=24345
lovel=1
lpc=FEd2QX1dHMJdMCpCMfrgwVeIXEE1BKjAhg+lQCy8isEFhu1BagHZwfO5MUHbQodAyusWwSLCzkDteTo+/KUrwA+Zyz6dNQ1ADGndwOkHJEEXzOjAd+9qQBcYXMDpJwlA
lpc_rms=-17.59
offset=6089
pitch_keycenter=f#3
sample=Baritone_nonvib_FF_F#3.opus
tune=-10
</region>

<region>
hikey=f#4
hivel=127
lokey=f4
loop_end=269001
loop_mode=loop_continuous
loop_start=78435
loop_xfade=22814
lovel=1
lpc=tMGWQKRPJsFK7zZBZ04KwTmFqECLqmLA9d+UQM65vcCHZpBA+ALcv8tXsj0s+C+/3HcYQGIdL8BZl5E/60WMP5/esr8APvG+FO3jP7jw1b+DTog9a//kP5MDxr/zoKU+
lpc_rms=-18.14
offset=816
pitch_keycenter=f#4
sample=Baritone_nonvib_FF_F#4.opus
tune=-28
</region>

<region>
hikey=g#2
hivel=127
lokey=g2
loop_end=294424
loop_mode=loop_continuous
loop_start=85848
loop_xfade=24970
lovel=1
lpc=OjNSQVGgBsIMOh1Cgar+wTYQsUErkkzBJSkBQTFST8FLFY5BLVZwwcRj2EB+YYk//TqTwLjrk0DyIw/A88qfPu6YUz9ihwrAUbM6QGxOvL8DAek9Q2/qPiswXr9k+oY+
lpc_rms=-20.41
offset=1283
pitch_keycenter=g#2
sample=Baritone_nonvib_FF_G#2.opus
tune=-4
</region>

<region>
hikey=g#3
hivel=127
lokey=g3
loop_end=275215
loop_mode=loop_continuous
loop_start=80247
loop_xfade=23341
lovel=1
lpc=89HGQF3ja8HN7IZBg81Twd5kB0Gx5YvAWkU+QBkTgsCYw4dAzMcWwNfGbj95TJu/TIkbQClyM8Akcew/5GAHv+JWcz4KytC+DOB5PJ2rAz/fUMC9HpPfPn6IY7+wmQg/
lpc_rms=-20.77
offset=499
pitch_keycenter=g#3
sample=Baritone_nonvib_FF_G#3.opus
tune=-15
</region>

<region>
hikey=g#4
hivel=127
lokey=g4
loop_end=264604
loop_mode=loop_continuous
loop_start=77153
loop_xfade=22441
lovel=1
lpc=hiAtQQHC18EmtPdBOq+nwbj3G0FH78nA3q0ZQRX9ScH4uv5ArfuwPvAzdcDVYQdAR268vtB8Sr4ZDIE/jgrNvqCCNb7chrK/I2ZjQI7vvMA/q61AD97ePobbj8D82jZA
lpc_rms=-12.77
offset=82
pitch_keycenter=g#4
sample=Baritone_nonvib_FF_G#4.opus
tune=-29
</region>
</group>